<?xml version="1.0" standalone="no"?>
<!DOCTYPE svg PUBLIC "-//W3C//DTD SVG 20010904//EN"
 "http://www.w3.org/TR/2001/REC-SVG-20010904/DTD/svg10.dtd">
<svg version="1.0" xmlns="http://www.w3.org/2000/svg"
 width="512.000000pt" height="512.000000pt" viewBox="0 0 512.000000 512.000000"
 preserveAspectRatio="xMidYMid meet">
<metadata>
Created by potrace 1.14, written by Peter Selinger 2001-2017
</metadata>
<g transform="translate(0.000000,512.000000) scale(0.100000,-0.100000)"
fill="#000000" stroke="none">
<path d="M2068 5116 c-1 -2 -30 -6 -63 -9 -153 -16 -322 -52 -459 -98 -94 -32
-298 -127 -304 -141 -2 -4 -8 -8 -13 -8 -17 0 -157 -99 -247 -174 -81 -69
-215 -207 -236 -244 -5 -9 -18 -26 -28 -36 -61 -66 -188 -283 -261 -446 -47
-107 -132 -351 -142 -412 -14 -80 -24 -104 -46 -105 -41 -3 -127 -54 -169 -99
-23 -25 -54 -71 -68 -102 -23 -48 -27 -71 -26 -147 0 -78 3 -98 28 -148 36
-75 90 -128 171 -168 59 -29 65 -34 65 -63 -1 -63 -56 -240 -100 -321 -9 -16
-36 -64 -59 -106 -89 -162 -45 -298 121 -377 289 -136 616 -84 852 137 144
136 274 298 356 444 l32 57 81 1 c45 0 102 2 127 4 86 5 225 16 262 21 34 4
37 3 33 -17 -18 -93 -96 -277 -160 -379 -58 -91 -67 -188 -27 -272 40 -81 109
-128 263 -178 237 -78 497 -39 717 107 119 79 327 309 435 480 49 78 54 82 82
78 70 -11 86 -14 140 -20 32 -4 77 -9 101 -10 39 -1 47 -6 74 -43 16 -23 30
-46 30 -51 0 -5 3 -11 8 -13 4 -1 34 -39 67 -83 71 -94 261 -288 325 -332 236
-160 506 -195 766 -100 126 46 190 96 226 174 41 92 28 170 -51 302 -60 99
-123 260 -145 371 -3 14 -8 59 -11 100 l-6 75 41 45 c39 44 121 159 149 210
45 84 91 225 109 335 9 56 9 289 -1 355 -35 250 -177 529 -361 709 -55 55 -78
63 -138 50 -10 -2 -42 14 -73 36 -50 36 -55 43 -49 68 9 45 -17 71 -128 126
-146 72 -267 109 -478 147 -112 20 -379 9 -531 -22 -19 -3 -46 7 -103 41 -42
25 -78 45 -80 45 -2 0 -37 15 -78 34 -142 67 -367 133 -513 151 -33 4 -71 9
-85 12 -29 5 -416 13 -422 9z"/>
</g>
</svg>
